<?xml version="1.0" encoding="UTF-8"?>
<svg width="64" height="64" viewBox="0 0 64 64" xmlns="http://www.w3.org/2000/svg">
  <!-- Background circle -->
  <circle cx="32" cy="32" r="28" fill="#3498db" stroke="#2980b9" stroke-width="2"/>
  
  <!-- AI Brain icon -->
  <g transform="translate(16, 16)">
    <!-- Main brain shape -->
    <path d="M16 2C20.4 2 24 5.6 24 10c0 1.5-.4 2.9-1 4.1 1.6.6 2.8 2.1 3 3.9.2-1 1-1.8 2-1.8 1.1 0 2 .9 2 2s-.9 2-2 2c-1 0-1.8-.8-2-1.8-.2 1.8-1.4 3.3-3 3.9.6 1.2 1 2.6 1 4.1 0 4.4-3.6 8-8 8s-8-3.6-8-8c0-1.5.4-2.9 1-4.1-1.6-.6-2.8-2.1-3-3.9-.2 1-1 1.8-2 1.8-1.1 0-2-.9-2-2s.9-2 2-2c1 0 1.8.8 2 1.8.2-1.8 1.4-3.3 3-3.9C8.4 12.9 8 11.5 8 10c0-4.4 3.6-8 8-8z" 
          fill="#ffffff" opacity="0.9"/>
    
    <!-- Neural connections -->
    <g stroke="#ffffff" stroke-width="1.5" fill="none" opacity="0.7">
      <circle cx="12" cy="8" r="1.5"/>
      <circle cx="20" cy="8" r="1.5"/>
      <circle cx="16" cy="12" r="1.5"/>
      <circle cx="10" cy="16" r="1.5"/>
      <circle cx="22" cy="16" r="1.5"/>
      <circle cx="16" cy="20" r="1.5"/>
      
      <!-- Connections -->
      <line x1="12" y1="8" x2="16" y2="12"/>
      <line x1="20" y1="8" x2="16" y2="12"/>
      <line x1="16" y1="12" x2="10" y2="16"/>
      <line x1="16" y1="12" x2="22" y2="16"/>
      <line x1="10" y1="16" x2="16" y2="20"/>
      <line x1="22" y1="16" x2="16" y2="20"/>
    </g>
  </g>
  
  <!-- AI text -->
  <text x="32" y="52" text-anchor="middle" fill="#ffffff" font-family="Arial, sans-serif" font-size="8" font-weight="bold">AI</text>
</svg>
